<svg id="Layer_1" enable-background="new 0 0 64 64" height="512" viewBox="0 0 64 64" width="512" xmlns="http://www.w3.org/2000/svg"><g><path d="m55.25 18.4c-.93-5.81-6-10.26-12.06-10.26-1.17 0-2.35.17-3.47.5-3.69-4.75-10.06-7.23-16.52-6.28-8.73 1.28-15.09 8.37-15.06 16.3-5.201 2.336-8.3 8.12-6.82 14.161 1.288 5.258 6.056 8.884 11.425 9.161l2.772-4.973h-2.119c-3.598 0-6.816-2.537-7.361-6.093-.576-3.756 1.784-7.206 5.344-8.107 1.24-.31 2.04-1.52 1.86-2.78-.871-6.029 3.919-11.729 10.689-12.729.68-.1 1.36-.14 2.02-.14 4.48 0 8.6 2.18 10.65 5.77.66 1.17 2.12 1.6 3.31.99 1.02-.52 2.12-.78 3.28-.78 3.96 0 7.2 3.22 7.22 7.17 0 1.237.917 2.295 2.159 2.465 1.473.202 2.88.815 3.75 2.021 4.216 5.847.091 12.213-5.489 12.213h-2.346l2.764 4.96c6.404-.414 11.823-5.743 11.802-12.22-.016-5.133-3.142-9.564-7.8-11.349z"/><g><path d="m44.361 61.841h-24.722c-2.576 0-4.894-1.326-6.199-3.548s-1.335-4.892-.081-7.143l12.361-22.177c1.288-2.31 3.635-3.689 6.279-3.689 2.645 0 4.993 1.379 6.281 3.689l12.36 22.177c1.255 2.25 1.225 4.92-.08 7.142-1.304 2.223-3.622 3.549-6.199 3.549zm-12.361-31.556c-.387 0-1.347.109-1.913 1.124l-12.361 22.175c-.551.988-.166 1.852.025 2.177.191.324.757 1.08 1.888 1.08h24.723c1.131 0 1.697-.756 1.888-1.081s.575-1.188.024-2.175l-12.36-22.177c-.566-1.014-1.527-1.123-1.914-1.123z"/><g><path d="m32 47.029c-1.381 0-2.5-1.119-2.5-2.5v-6.877c0-1.381 1.119-2.5 2.5-2.5s2.5 1.119 2.5 2.5v6.877c0 1.381-1.119 2.5-2.5 2.5z"/><circle cx="32" cy="51.831" r="2.679"/></g></g></g></svg>