<svg fill="none" height="512" viewBox="0 0 24 24" width="512" xmlns="http://www.w3.org/2000/svg"><g id="System / Wifi_Problem"><path id="Vector (Stroke)" clip-rule="evenodd" d="m12.9593 4.9966c.0019.55228-.4443 1.00152-.9966 1.00339-1.5027.00512-2.98881.3186-4.36621.9203-1.37721.60161-2.61654 1.47906-3.6415 2.5782-.37666.40392-1.00944.42601-1.41335.04936-.40392-.37666-.42601-1.00944-.04936-1.41336 1.21132-1.29898 2.67598-2.33596 4.30359-3.04696 1.62743-.71092 3.38373-1.08148 5.16003-1.08752.5523-.00188 1.0015.44431 1.0034.99659zm2.3336-.70371c.3905-.39052 1.0237-.39052 1.4142 0l1.2929 1.29288 1.2929-1.29288c.3905-.39052 1.0237-.39052 1.4142 0 .3905.39053.3905 1.02369 0 1.41422l-1.2929 1.29287 1.2929 1.29288c.3905.39052.3905 1.02369 0 1.41421-.3905.39053-1.0237.39053-1.4142 0l-1.2929-1.29287-1.2929 1.29287c-.3905.39053-1.0237.39053-1.4142 0-.3905-.39052-.3905-1.02369 0-1.41421l1.2929-1.29288-1.2929-1.29287c-.3905-.39053-.3905-1.02369 0-1.41422zm-2.3347 4.70184c.003.55227-.4424 1.00234-.9947 1.00526-.9541.00501-1.8974.20511-2.77142.58791s-1.66056.9402-2.31131 1.638c-.37666.4039-1.00944.426-1.41335.0494-.40392-.3767-.42601-1.0095-.04936-1.4134.83667-.89719 1.84794-1.61388 2.97169-2.10603 1.12376-.49215 2.33645-.74939 3.56325-.75586.5523-.00291 1.0023.44244 1.0052.99472zm.6175 5.32877c-.5023-.2153-1.0433-.3254-1.5896-.3235-.5467.0019-1.0875.1157-1.588.3343-.50069.2188-.9513.5378-1.32397.9375-.37666.4039-1.00944.426-1.41335.0493-.40392-.3766-.42601-1.0094-.04936-1.4133.55901-.5995 1.23492-1.078 1.98603-1.4062.75135-.3283 1.56225-.4987 2.38165-.5016.8197-.0029 1.6312.1623 2.3845.4852.7532.3228 1.4327.7965 1.996 1.3922.3795.4013.3618 1.0342-.0395 1.4137s-1.0342.3618-1.4136-.0395c-.3754-.3969-.8283-.7128-1.3308-.9281zm-3.5757 3.6765c0-1.1046.8954-2 2-2s2 .8954 2 2-.8954 2-2 2-2-.8954-2-2z" fill="rgb(0,0,0)" fill-rule="evenodd"/></g></svg>